<?plantuml 1.2026.2?><svg xmlns="http://www.w3.org/2000/svg" xmlns:xlink="http://www.w3.org/1999/xlink" contentStyleType="text/css" data-diagram-type="DESCRIPTION" height="955px" preserveAspectRatio="none" style="width:759px;height:955px;background:#FFFFFF;" version="1.1" viewBox="0 0 759 955" width="759px" zoomAndPan="magnify"><defs/><g><!--cluster ???????--><g class="cluster" data-qualified-name="......." data-source-line="12" id="ent0004"><rect fill="none" height="856" rx="2.5" ry="2.5" style="stroke:#181818;stroke-width:1;" width="672.82" x="81" y="27.13"/><text fill="#000000" font-family="sans-serif" font-size="14" font-weight="bold" lengthAdjust="spacing" textLength="98" x="368.41" y="42.6652">&#21475;&#31639;&#23567;&#31243;&#24207;&#31995;&#32479;</text></g><!--entity UCAuth--><g class="entity" data-qualified-name="........UCAuth" data-source-line="13" id="ent0005"><ellipse cx="426.088" cy="852.129" fill="#F8FBFF" rx="42.598" ry="14.659" style="stroke:#2B6CB0;stroke-width:0.5;"/><text fill="#000000" font-family="sans-serif" font-size="14" lengthAdjust="spacing" textLength="56" x="398.088" y="856.8731">&#36134;&#21495;&#35748;&#35777;</text></g><!--entity UC1--><g class="entity" data-qualified-name="........UC1" data-source-line="14" id="ent0006"><ellipse cx="167.528" cy="528.129" fill="#F8FBFF" rx="42.598" ry="14.659" style="stroke:#2B6CB0;stroke-width:0.5;"/><text fill="#000000" font-family="sans-serif" font-size="14" lengthAdjust="spacing" textLength="56" x="139.528" y="532.8731">&#23398;&#29983;&#30331;&#24405;</text></g><!--entity UC2--><g class="entity" data-qualified-name="........UC2" data-source-line="15" id="ent0007"><ellipse cx="167.528" cy="852.129" fill="#F8FBFF" rx="42.598" ry="14.659" style="stroke:#2B6CB0;stroke-width:0.5;"/><text fill="#000000" font-family="sans-serif" font-size="14" lengthAdjust="spacing" textLength="56" x="139.528" y="856.8731">&#25945;&#24072;&#30331;&#24405;</text></g><!--entity UC11--><g class="entity" data-qualified-name="........UC11" data-source-line="16" id="ent0008"><ellipse cx="167.528" cy="660.129" fill="#F8FBFF" rx="42.598" ry="14.659" style="stroke:#2B6CB0;stroke-width:0.5;"/><text fill="#000000" font-family="sans-serif" font-size="14" lengthAdjust="spacing" textLength="56" x="139.528" y="664.8731">&#23398;&#29983;&#27880;&#20876;</text></g><!--entity UC12--><g class="entity" data-qualified-name="........UC12" data-source-line="17" id="ent0009"><ellipse cx="167.5267" cy="724.129" fill="#F8FBFF" rx="55.7167" ry="14.659" style="stroke:#2B6CB0;stroke-width:0.5;"/><text fill="#000000" font-family="sans-serif" font-size="14" lengthAdjust="spacing" textLength="74.5527" x="130.2504" y="728.8731">&#21047;&#26032; Token</text></g><!--entity UC13--><g class="entity" data-qualified-name="........UC13" data-source-line="18" id="ent0010"><ellipse cx="167.5311" cy="594.1262" fill="#F8FBFF" rx="70.5311" ry="16.5062" style="stroke:#2B6CB0;stroke-width:0.5;"/><text fill="#000000" font-family="sans-serif" font-size="14" lengthAdjust="spacing" textLength="106.9824" x="114.0399" y="598.8704">&#26597;&#35810; Token &#20449;&#24687;</text></g><!--entity UC3--><g class="entity" data-qualified-name="........UC3" data-source-line="19" id="ent0011"><ellipse cx="167.5285" cy="788.1297" fill="#F8FBFF" rx="61.8485" ry="14.7697" style="stroke:#2B6CB0;stroke-width:0.5;"/><text fill="#000000" font-family="sans-serif" font-size="14" lengthAdjust="spacing" textLength="84" x="125.5285" y="792.8738">&#26597;&#30475;&#39318;&#39029;&#27010;&#35272;</text></g><!--entity UC4--><g class="entity" data-qualified-name="........UC4" data-source-line="20" id="ent0012"><ellipse cx="167.528" cy="237.129" fill="#F8FBFF" rx="42.598" ry="14.659" style="stroke:#2B6CB0;stroke-width:0.5;"/><text fill="#000000" font-family="sans-serif" font-size="14" lengthAdjust="spacing" textLength="56" x="139.528" y="241.8731">&#24320;&#22987;&#35757;&#32451;</text></g><!--entity UC14--><g class="entity" data-qualified-name="........UC14" data-source-line="21" id="ent0013"><ellipse cx="426.0885" cy="334.1297" fill="#F8FBFF" rx="61.8485" ry="14.7697" style="stroke:#2B6CB0;stroke-width:0.5;"/><text fill="#000000" font-family="sans-serif" font-size="14" lengthAdjust="spacing" textLength="84" x="384.0885" y="338.8738">&#37197;&#32622;&#35757;&#32451;&#21442;&#25968;</text></g><!--entity UC15--><g class="entity" data-qualified-name="........UC15" data-source-line="22" id="ent0014"><ellipse cx="426.0885" cy="269.1297" fill="#F8FBFF" rx="61.8485" ry="14.7697" style="stroke:#2B6CB0;stroke-width:0.5;"/><text fill="#000000" font-family="sans-serif" font-size="14" lengthAdjust="spacing" textLength="84" x="384.0885" y="273.8738">&#29983;&#25104;&#35757;&#32451;&#39064;&#30446;</text></g><!--entity UC16--><g class="entity" data-qualified-name="........UC16" data-source-line="23" id="ent0015"><ellipse cx="426.088" cy="205.129" fill="#F8FBFF" rx="42.598" ry="14.659" style="stroke:#2B6CB0;stroke-width:0.5;"/><text fill="#000000" font-family="sans-serif" font-size="14" lengthAdjust="spacing" textLength="56" x="398.088" y="209.8731">&#31572;&#39064;&#35745;&#26102;</text></g><!--entity UC5--><g class="entity" data-qualified-name="........UC5" data-source-line="24" id="ent0016"><ellipse cx="426.088" cy="141.129" fill="#F8FBFF" rx="42.598" ry="14.659" style="stroke:#2B6CB0;stroke-width:0.5;"/><text fill="#000000" font-family="sans-serif" font-size="14" lengthAdjust="spacing" textLength="56" x="398.088" y="145.8731">&#25552;&#20132;&#31572;&#26696;</text></g><!--entity UC17--><g class="entity" data-qualified-name="........UC17" data-source-line="25" id="ent0017"><ellipse cx="675.9785" cy="141.1297" fill="#F8FBFF" rx="61.8485" ry="14.7697" style="stroke:#2B6CB0;stroke-width:0.5;"/><text fill="#000000" font-family="sans-serif" font-size="14" lengthAdjust="spacing" textLength="84" x="633.9785" y="145.8738">&#26597;&#30475;&#21028;&#39064;&#32467;&#26524;</text></g><!--entity UC18--><g class="entity" data-qualified-name="........UC18" data-source-line="26" id="ent0018"><ellipse cx="426.0885" cy="77.1297" fill="#F8FBFF" rx="61.8485" ry="14.7697" style="stroke:#2B6CB0;stroke-width:0.5;"/><text fill="#000000" font-family="sans-serif" font-size="14" lengthAdjust="spacing" textLength="84" x="384.0885" y="81.8738">&#26597;&#30475;&#26412;&#27425;&#27719;&#24635;</text></g><!--entity UC6--><g class="entity" data-qualified-name="........UC6" data-source-line="27" id="ent0019"><ellipse cx="167.5275" cy="336.129" fill="#F8FBFF" rx="52.4975" ry="14.659" style="stroke:#2B6CB0;stroke-width:0.5;"/><text fill="#000000" font-family="sans-serif" font-size="14" lengthAdjust="spacing" textLength="70" x="132.5275" y="340.8731">&#26597;&#30475;&#38169;&#39064;&#26412;</text></g><!--entity UC19--><g class="entity" data-qualified-name="........UC19" data-source-line="28" id="ent0020"><ellipse cx="426.088" cy="398.129" fill="#F8FBFF" rx="42.598" ry="14.659" style="stroke:#2B6CB0;stroke-width:0.5;"/><text fill="#000000" font-family="sans-serif" font-size="14" lengthAdjust="spacing" textLength="56" x="398.088" y="402.8731">&#31579;&#36873;&#38169;&#39064;</text></g><!--entity UC20--><g class="entity" data-qualified-name="........UC20" data-source-line="29" id="ent0021"><ellipse cx="426.0885" cy="593.1297" fill="#F8FBFF" rx="61.8485" ry="14.7697" style="stroke:#2B6CB0;stroke-width:0.5;"/><text fill="#000000" font-family="sans-serif" font-size="14" lengthAdjust="spacing" textLength="84" x="384.0885" y="597.8738">&#23637;&#24320;&#38169;&#39064;&#35814;&#24773;</text></g><!--entity UC7--><g class="entity" data-qualified-name="........UC7" data-source-line="30" id="ent0022"><ellipse cx="426.0924" cy="527.1265" fill="#F8FBFF" rx="67.0324" ry="15.8065" style="stroke:#2B6CB0;stroke-width:0.5;"/><text fill="#000000" font-family="sans-serif" font-size="14" lengthAdjust="spacing" textLength="98" x="377.0924" y="531.8706">&#26631;&#35760;&#38169;&#39064;&#24050;&#25913;&#27491;</text></g><!--entity UC8--><g class="entity" data-qualified-name="........UC8" data-source-line="31" id="ent0023"><ellipse cx="426.088" cy="462.129" fill="#F8FBFF" rx="42.598" ry="14.659" style="stroke:#2B6CB0;stroke-width:0.5;"/><text fill="#000000" font-family="sans-serif" font-size="14" lengthAdjust="spacing" textLength="56" x="398.088" y="466.8731">&#21024;&#38500;&#38169;&#39064;</text></g><!--entity UC9--><g class="entity" data-qualified-name="........UC9" data-source-line="32" id="ent0024"><ellipse cx="167.5285" cy="400.1297" fill="#F8FBFF" rx="61.8485" ry="14.7697" style="stroke:#2B6CB0;stroke-width:0.5;"/><text fill="#000000" font-family="sans-serif" font-size="14" lengthAdjust="spacing" textLength="84" x="125.5285" y="404.8738">&#26597;&#30475;&#23398;&#20064;&#32479;&#35745;</text></g><!--entity UC21--><g class="entity" data-qualified-name="........UC21" data-source-line="33" id="ent0025"><ellipse cx="426.0946" cy="723.1269" fill="#F8FBFF" rx="63.1846" ry="15.0369" style="stroke:#2B6CB0;stroke-width:0.5;"/><text fill="#000000" font-family="sans-serif" font-size="14" lengthAdjust="spacing" textLength="87.7051" x="382.2421" y="727.8711">&#26597;&#30475;&#26368;&#36817;20&#39064;</text></g><!--entity UC22--><g class="entity" data-qualified-name="........UC22" data-source-line="34" id="ent0026"><ellipse cx="426.0885" cy="658.1297" fill="#F8FBFF" rx="61.8485" ry="14.7697" style="stroke:#2B6CB0;stroke-width:0.5;"/><text fill="#000000" font-family="sans-serif" font-size="14" lengthAdjust="spacing" textLength="84" x="384.0885" y="662.8738">&#26597;&#30475;&#27599;&#26085;&#32479;&#35745;</text></g><!--entity UC23--><g class="entity" data-qualified-name="........UC23" data-source-line="35" id="ent0027"><ellipse cx="426.0885" cy="788.1297" fill="#F8FBFF" rx="61.8485" ry="14.7697" style="stroke:#2B6CB0;stroke-width:0.5;"/><text fill="#000000" font-family="sans-serif" font-size="14" lengthAdjust="spacing" textLength="84" x="384.0885" y="792.8738">&#26597;&#30475;&#39064;&#22411;&#20998;&#26512;</text></g><!--entity UC10--><g class="entity" data-qualified-name="........UC10" data-source-line="36" id="ent0028"><ellipse cx="167.528" cy="464.129" fill="#F8FBFF" rx="42.598" ry="14.659" style="stroke:#2B6CB0;stroke-width:0.5;"/><text fill="#000000" font-family="sans-serif" font-size="14" lengthAdjust="spacing" textLength="56" x="139.528" y="468.8731">&#36864;&#20986;&#30331;&#24405;</text></g><!--entity Student--><g class="entity" data-qualified-name="Student" data-source-line="9" id="ent0002"><ellipse cx="20" cy="427.38" fill="#F1F1F1" rx="8" ry="8" style="stroke:#181818;stroke-width:0.5;"/><path d="M20,435.38 L20,462.38 M7,443.38 L33,443.38 M20,462.38 L7,477.38 M20,462.38 L33,477.38" fill="none" style="stroke:#181818;stroke-width:0.5;"/><text fill="#000000" font-family="sans-serif" font-size="14" lengthAdjust="spacing" textLength="28" x="6" y="492.4152">&#23398;&#29983;</text></g><!--entity Teacher--><g class="entity" data-qualified-name="Teacher" data-source-line="10" id="ent0003"><ellipse cx="20" cy="754.38" fill="#F1F1F1" rx="8" ry="8" style="stroke:#181818;stroke-width:0.5;"/><path d="M20,762.38 L20,789.38 M7,770.38 L33,770.38 M20,789.38 L7,804.38 M20,789.38 L33,804.38" fill="none" style="stroke:#181818;stroke-width:0.5;"/><text fill="#000000" font-family="sans-serif" font-size="14" lengthAdjust="spacing" textLength="28" x="6" y="819.4152">&#25945;&#24072;</text></g><!--link Student to UCAuth--><g class="link" data-entity-1="ent0002" data-entity-2="ent0005" data-link-type="dependency" data-source-line="39" id="lnk29"><path d="M25.09,418.47 C32.26,356.59 48.71,238.83 73,205.13 C145.74,104.22 239.31,6 329.06,92.13 C387.47,148.18 314.67,752.43 359.06,820.13 C366.4,831.31 373.2469,836.4872 385.3569,841.3172" fill="none" id="Student-to-UCAuth" style="stroke:#2B6CB0;stroke-width:1;"/><polygon fill="#2B6CB0" points="390.93,843.54,384.0522,836.4904,386.2858,841.6877,381.0885,843.9212,390.93,843.54" style="stroke:#2B6CB0;stroke-width:1;"/></g><!--link Student to UC1--><g class="link" data-entity-1="ent0002" data-entity-2="ent0006" data-link-type="dependency" data-source-line="40" id="lnk30"><path d="M34.32,468.98 C44.39,477.46 58.84,488.64 73,496.13 C91.81,506.08 108.5885,512.191 126.8285,517.611" fill="none" id="Student-to-UC1" style="stroke:#2B6CB0;stroke-width:1;"/><polygon fill="#2B6CB0" points="132.58,519.32,125.0922,512.9221,127.7871,517.8958,122.8135,520.5907,132.58,519.32" style="stroke:#2B6CB0;stroke-width:1;"/></g><!--link Student to UC11--><g class="link" data-entity-1="ent0002" data-entity-2="ent0008" data-link-type="dependency" data-source-line="41" id="lnk31"><path d="M22.86,495.81 C26.74,534.19 38.4,592.31 73,628.13 C87.19,642.82 102.5537,649.4106 121.1837,653.7106" fill="none" id="Student-to-UC11" style="stroke:#2B6CB0;stroke-width:1;"/><polygon fill="#2B6CB0" points="127.03,655.06,119.1601,649.1384,122.1581,653.9355,117.361,656.9335,127.03,655.06" style="stroke:#2B6CB0;stroke-width:1;"/></g><!--link Student to UC12--><g class="link" data-entity-1="ent0002" data-entity-2="ent0009" data-link-type="dependency" data-source-line="42" id="lnk32"><path d="M24.95,495.64 C31.73,554.61 47.38,663.47 73,692.13 C84.55,705.05 95.7736,711.1374 112.1136,715.7274" fill="none" id="Student-to-UC12" style="stroke:#2B6CB0;stroke-width:1;"/><polygon fill="#2B6CB0" points="117.89,717.35,110.3071,711.0651,113.0763,715.9978,108.1436,718.767,117.89,717.35" style="stroke:#2B6CB0;stroke-width:1;"/></g><!--link Student to UC13--><g class="link" data-entity-1="ent0002" data-entity-2="ent0010" data-link-type="dependency" data-source-line="43" id="lnk33"><path d="M32.62,495.86 C40.82,517.36 53.82,543.11 73,560.13 C84.76,570.57 94.309,575.9204 109.039,581.0104" fill="none" id="Student-to-UC13" style="stroke:#2B6CB0;stroke-width:1;"/><polygon fill="#2B6CB0" points="114.71,582.97,107.51,576.2499,109.9842,581.337,104.8971,583.8112,114.71,582.97" style="stroke:#2B6CB0;stroke-width:1;"/></g><!--link Student to UC3--><g class="link" data-entity-1="ent0002" data-entity-2="ent0011" data-link-type="dependency" data-source-line="44" id="lnk34"><path d="M22.92,495.79 C27.23,567.54 40.03,717.51 73,756.13 C83.36,768.27 92.808,774.037 107.938,778.717" fill="none" id="Student-to-UC3" style="stroke:#2B6CB0;stroke-width:1;"/><polygon fill="#2B6CB0" points="113.67,780.49,106.254,774.0091,108.8933,779.0125,103.8899,781.6518,113.67,780.49" style="stroke:#2B6CB0;stroke-width:1;"/></g><!--link Student to UC4--><g class="link" data-entity-1="ent0002" data-entity-2="ent0012" data-link-type="dependency" data-source-line="45" id="lnk35"><path d="M27.26,418.52 C34.11,385.58 47.67,338.26 73,304.13 C91.09,279.75 115.3993,263.567 136.4493,252.117" fill="none" id="Student-to-UC4" style="stroke:#2B6CB0;stroke-width:1;"/><polygon fill="#2B6CB0" points="141.72,249.25,131.9026,250.0366,137.3277,251.6391,135.7252,257.0643,141.72,249.25" style="stroke:#2B6CB0;stroke-width:1;"/></g><!--link Student to UC6--><g class="link" data-entity-1="ent0002" data-entity-2="ent0019" data-link-type="dependency" data-source-line="46" id="lnk36"><path d="M34.31,422.19 C42.89,403.85 55.69,382.3 73,368.13 C87.21,356.5 100.1069,350.6344 117.0269,345.8444" fill="none" id="Student-to-UC6" style="stroke:#2B6CB0;stroke-width:1;"/><polygon fill="#2B6CB0" points="122.8,344.21,113.0508,342.8128,117.9891,345.572,115.2299,350.5103,122.8,344.21" style="stroke:#2B6CB0;stroke-width:1;"/></g><!--link Student to UC9--><g class="link" data-entity-1="ent0002" data-entity-2="ent0024" data-link-type="dependency" data-source-line="47" id="lnk37"><path d="M34.15,448.45 C42.46,443.22 53.57,436.72 64,432.13 C83.29,423.64 99.7549,418.0725 118.5849,412.6425" fill="none" id="Student-to-UC9" style="stroke:#2B6CB0;stroke-width:1;"/><polygon fill="#2B6CB0" points="124.35,410.98,114.5941,409.6303,119.5458,412.3654,116.8107,417.3171,124.35,410.98" style="stroke:#2B6CB0;stroke-width:1;"/></g><!--link Student to UC10--><g class="link" data-entity-1="ent0002" data-entity-2="ent0028" data-link-type="dependency" data-source-line="48" id="lnk38"><path d="M34.48,457.31 C43.19,457.46 54.77,457.71 65,458.13 C84.94,458.94 101.0718,459.8343 119.5618,460.9943" fill="none" id="Student-to-UC10" style="stroke:#2B6CB0;stroke-width:1;"/><polygon fill="#2B6CB0" points="125.55,461.37,116.8181,456.8143,120.5598,461.0569,116.3172,464.7986,125.55,461.37" style="stroke:#2B6CB0;stroke-width:1;"/></g><!--link Teacher to UCAuth--><g class="link" data-entity-1="ent0003" data-entity-2="ent0005" data-link-type="dependency" data-source-line="50" id="lnk39"><path d="M30.41,822.86 C37.99,844.95 51.09,870.83 73,884.13 C179.51,948.79 333.0027,893.1841 394.2627,866.3941" fill="none" id="Teacher-to-UCAuth" style="stroke:#2B6CB0;stroke-width:1;"/><polygon fill="#2B6CB0" points="399.76,863.99,389.9113,863.9312,395.1789,865.9934,393.1167,871.261,399.76,863.99" style="stroke:#2B6CB0;stroke-width:1;"/></g><!--link Teacher to UC2--><g class="link" data-entity-1="ent0003" data-entity-2="ent0007" data-link-type="dependency" data-source-line="51" id="lnk40"><path d="M34.47,795.01 C44.6,802.79 59.08,813.1 73,820.13 C92.15,829.8 109.1556,835.9175 127.4256,841.4275" fill="none" id="Teacher-to-UC2" style="stroke:#2B6CB0;stroke-width:1;"/><polygon fill="#2B6CB0" points="133.17,843.16,125.7083,836.7317,128.383,841.7163,123.3984,844.391,133.17,843.16" style="stroke:#2B6CB0;stroke-width:1;"/></g><!--link Teacher to UC12--><g class="link" data-entity-1="ent0003" data-entity-2="ent0009" data-link-type="dependency" data-source-line="52" id="lnk41"><path d="M34.38,776.13 C44.71,770.16 59.47,762.04 73,756.13 C91.24,748.16 106.4498,742.6822 123.8698,737.0622" fill="none" id="Teacher-to-UC12" style="stroke:#2B6CB0;stroke-width:1;"/><polygon fill="#2B6CB0" points="129.58,735.22,119.7866,734.1765,124.8215,736.7552,122.2429,741.7901,129.58,735.22" style="stroke:#2B6CB0;stroke-width:1;"/></g><!--link Teacher to UC13--><g class="link" data-entity-1="ent0003" data-entity-2="ent0010" data-link-type="dependency" data-source-line="53" id="lnk42"><path d="M24.43,745.59 C29.5,710.66 42.03,659.94 73,628.13 C83.61,617.23 92.3129,611.8092 106.6029,606.7592" fill="none" id="Teacher-to-UC13" style="stroke:#2B6CB0;stroke-width:1;"/><polygon fill="#2B6CB0" points="112.26,604.76,102.4415,603.9874,107.5457,606.426,105.1071,611.5302,112.26,604.76" style="stroke:#2B6CB0;stroke-width:1;"/></g><!--link Teacher to UC3--><g class="link" data-entity-1="ent0003" data-entity-2="ent0011" data-link-type="dependency" data-source-line="54" id="lnk43"><path d="M34.43,784.5 C50.76,784.95 73.4123,785.5645 99.8723,786.2945" fill="none" id="Teacher-to-UC3" style="stroke:#2B6CB0;stroke-width:1;"/><polygon fill="#2B6CB0" points="105.87,786.46,96.9837,782.2133,100.8719,786.3221,96.7631,790.2103,105.87,786.46" style="stroke:#2B6CB0;stroke-width:1;"/></g><!--link Teacher to UC10--><g class="link" data-entity-1="ent0003" data-entity-2="ent0028" data-link-type="dependency" data-source-line="55" id="lnk44"><path d="M23.2,745.52 C27.92,675.88 41.29,533.03 73,496.13 C86.31,480.64 101.5995,473.9261 120.4195,469.7961" fill="none" id="Teacher-to-UC10" style="stroke:#2B6CB0;stroke-width:1;"/><polygon fill="#2B6CB0" points="126.28,468.51,116.6318,466.5321,121.3962,469.5817,118.3466,474.3462,126.28,468.51" style="stroke:#2B6CB0;stroke-width:1;"/></g><!--link UC1 to UCAuth--><g class="link" data-entity-1="ent0006" data-entity-2="ent0005" data-link-type="extension" data-source-line="57" id="lnk45"><path d="M203.31,536.32 C216.22,541.12 229.74,548.6 238.06,560.13 C308,656.92 185.59,740.77 268.06,827.13 C276.05,835.49 322.9092,841.7227 366.7292,846.3427" fill="none" id="UC1-to-UCAuth" style="stroke:#2B6CB0;stroke-width:1;"/><polygon fill="none" points="384.63,848.23,367.3583,840.3758,366.1001,852.3096,384.63,848.23" style="stroke:#2B6CB0;stroke-width:1;"/></g><!--link UC2 to UCAuth--><g class="link" data-entity-1="ent0007" data-entity-2="ent0005" data-link-type="extension" data-source-line="58" id="lnk46"><path d="M210.61,852.13 C258.38,852.13 317.82,852.13 365.42,852.13" fill="none" id="UC2-to-UCAuth" style="stroke:#2B6CB0;stroke-width:1;"/><polygon fill="none" points="383.42,852.13,365.42,846.13,365.42,858.13,383.42,852.13" style="stroke:#2B6CB0;stroke-width:1;"/></g><!--link UC4 to UC14--><g class="link" data-entity-1="ent0012" data-entity-2="ent0013" data-link-type="dependency" data-source-line="60" id="lnk47"><path d="M184.65,250.74 C203.44,265.88 236.04,289.96 268.06,303.13 C300.06,316.29 332.1318,323.1209 362.7518,327.5509" fill="none" id="UC4-to-UC14" style="stroke:#2B6CB0;stroke-width:1;"/><polygon fill="#2B6CB0" points="368.69,328.41,360.3555,323.1625,363.7415,327.6941,359.21,331.0801,368.69,328.41" style="stroke:#2B6CB0;stroke-width:1;"/><text fill="#000000" font-family="sans-serif" font-size="13" lengthAdjust="spacing" textLength="59.3569" x="269.06" y="299.6984">&#171;include&#187;</text></g><!--link UC4 to UC15--><g class="link" data-entity-1="ent0012" data-entity-2="ent0014" data-link-type="dependency" data-source-line="61" id="lnk48"><path d="M193.2,249.11 C212.92,258 241.57,269.36 268.06,274.13 C302.02,280.24 334.7839,279.6247 365.2939,276.8947" fill="none" id="UC4-to-UC15" style="stroke:#2B6CB0;stroke-width:1;"/><polygon fill="#2B6CB0" points="371.27,276.36,361.9493,273.178,366.2899,276.8056,362.6623,281.1462,371.27,276.36" style="stroke:#2B6CB0;stroke-width:1;"/><text fill="#000000" font-family="sans-serif" font-size="13" lengthAdjust="spacing" textLength="59.3569" x="269.06" y="270.6984">&#171;include&#187;</text></g><!--link UC4 to UC16--><g class="link" data-entity-1="ent0012" data-entity-2="ent0015" data-link-type="dependency" data-source-line="62" id="lnk49"><path d="M208.11,232.2 C240.61,228.16 287.82,222.28 329.06,217.13 C347.57,214.82 362.1267,213.0067 379.4267,210.8367" fill="none" id="UC4-to-UC16" style="stroke:#2B6CB0;stroke-width:1;"/><polygon fill="#2B6CB0" points="385.38,210.09,375.9521,207.2412,380.4189,210.7123,376.9478,215.179,385.38,210.09" style="stroke:#2B6CB0;stroke-width:1;"/><text fill="#000000" font-family="sans-serif" font-size="13" lengthAdjust="spacing" textLength="59.3569" x="269.06" y="213.6984">&#171;include&#187;</text></g><!--link UC4 to UC5--><g class="link" data-entity-1="ent0012" data-entity-2="ent0016" data-link-type="dependency" data-source-line="63" id="lnk50"><path d="M195.41,225.6 C215.35,217.15 243.26,205.57 268.06,196.13 C311.66,179.53 357.0633,163.8935 388.8333,153.2035" fill="none" id="UC4-to-UC5" style="stroke:#2B6CB0;stroke-width:1;"/><polygon fill="#2B6CB0" points="394.52,151.29,384.7143,150.3691,389.7811,152.8846,387.2656,157.9513,394.52,151.29" style="stroke:#2B6CB0;stroke-width:1;"/><text fill="#000000" font-family="sans-serif" font-size="13" lengthAdjust="spacing" textLength="59.3569" x="269.06" y="170.7184">&#171;include&#187;</text></g><!--link UC5 to UC17--><g class="link" data-entity-1="ent0016" data-entity-2="ent0017" data-link-type="dependency" data-source-line="64" id="lnk51"><path d="M469.14,141.13 C508.79,141.13 562.66,141.13 607.63,141.13" fill="none" id="UC5-to-UC17" style="stroke:#2B6CB0;stroke-width:1;"/><polygon fill="#2B6CB0" points="613.63,141.13,604.63,137.13,608.63,141.13,604.63,145.13,613.63,141.13" style="stroke:#2B6CB0;stroke-width:1;"/><text fill="#000000" font-family="sans-serif" font-size="13" lengthAdjust="spacing" textLength="59.3569" x="524.13" y="137.6984">&#171;include&#187;</text></g><!--link UC4 to UC18--><g class="link" data-entity-1="ent0012" data-entity-2="ent0018" data-link-type="dependency" data-source-line="65" id="lnk52"><path d="M181.96,222.89 C200.14,204.18 234.23,171.15 268.06,149.13 C307.53,123.44 352.0477,104.3282 384.9077,91.7282" fill="none" id="UC4-to-UC18" style="stroke:#2B6CB0;stroke-width:1;"/><polygon fill="#2B6CB0" points="390.51,89.58,380.6745,89.0674,385.8414,91.3701,383.5387,96.5371,390.51,89.58" style="stroke:#2B6CB0;stroke-width:1;"/><text fill="#000000" font-family="sans-serif" font-size="13" lengthAdjust="spacing" textLength="57.1924" x="270.06" y="113.6884">&#171;extend&#187;</text></g><!--link UC6 to UC19--><g class="link" data-entity-1="ent0019" data-entity-2="ent0020" data-link-type="dependency" data-source-line="67" id="lnk53"><path d="M199.13,348.29 C211.57,353.72 225.85,360.59 238.06,368.13 C252.59,377.1 252.06,386.17 268.06,392.13 C306.16,406.31 347.1208,406.519 379.7108,403.799" fill="none" id="UC6-to-UC19" style="stroke:#2B6CB0;stroke-width:1;"/><polygon fill="#2B6CB0" points="385.69,403.3,376.3885,400.0624,380.7073,403.7159,377.0539,408.0347,385.69,403.3" style="stroke:#2B6CB0;stroke-width:1;"/><text fill="#000000" font-family="sans-serif" font-size="13" lengthAdjust="spacing" textLength="59.3569" x="269.06" y="388.6984">&#171;include&#187;</text></g><!--link UC6 to UC20--><g class="link" data-entity-1="ent0019" data-entity-2="ent0021" data-link-type="dependency" data-source-line="68" id="lnk54"><path d="M206.94,346.16 C218.56,350.99 230.28,358.02 238.06,368.13 C285.4,429.62 217.54,481.23 268.06,540.13 C292.7,568.85 327.5535,580.9951 361.3735,587.0351" fill="none" id="UC6-to-UC20" style="stroke:#2B6CB0;stroke-width:1;"/><polygon fill="#2B6CB0" points="367.28,588.09,359.1234,582.57,362.3579,587.2109,357.7169,590.4454,367.28,588.09" style="stroke:#2B6CB0;stroke-width:1;"/><text fill="#000000" font-family="sans-serif" font-size="13" lengthAdjust="spacing" textLength="59.3569" x="269.06" y="536.6984">&#171;include&#187;</text></g><!--link UC6 to UC7--><g class="link" data-entity-1="ent0019" data-entity-2="ent0022" data-link-type="dependency" data-source-line="69" id="lnk55"><path d="M206.06,346.42 C217.76,351.29 229.75,358.28 238.06,368.13 C271.28,407.52 232.16,443.16 268.06,480.13 C292.35,505.13 323.4383,515.9444 355.4283,521.4944" fill="none" id="UC6-to-UC7" style="stroke:#2B6CB0;stroke-width:1;"/><polygon fill="#2B6CB0" points="361.34,522.52,353.1562,517.0404,356.4136,521.6653,351.7887,524.9227,361.34,522.52" style="stroke:#2B6CB0;stroke-width:1;"/><text fill="#000000" font-family="sans-serif" font-size="13" lengthAdjust="spacing" textLength="57.1924" x="270.06" y="476.6984">&#171;extend&#187;</text></g><!--link UC6 to UC8--><g class="link" data-entity-1="ent0019" data-entity-2="ent0023" data-link-type="dependency" data-source-line="70" id="lnk56"><path d="M203.92,346.96 C215.85,351.94 228.55,358.85 238.06,368.13 C259.7,389.22 244.2,410.59 268.06,429.13 C300.95,454.68 342.9848,461.4003 377.2548,462.7703" fill="none" id="UC6-to-UC8" style="stroke:#2B6CB0;stroke-width:1;"/><polygon fill="#2B6CB0" points="383.25,463.01,374.417,458.6537,378.254,462.8103,374.0974,466.6473,383.25,463.01" style="stroke:#2B6CB0;stroke-width:1;"/><text fill="#000000" font-family="sans-serif" font-size="13" lengthAdjust="spacing" textLength="57.1924" x="270.06" y="425.6984">&#171;extend&#187;</text></g><!--link UC9 to UC21--><g class="link" data-entity-1="ent0024" data-entity-2="ent0025" data-link-type="dependency" data-source-line="72" id="lnk57"><path d="M210.12,411.21 C220.76,415.98 231.14,422.7 238.06,432.13 C300.13,516.64 202.54,584.27 268.06,666.13 C292.08,696.13 327.4133,709.1795 361.6033,715.9195" fill="none" id="UC9-to-UC21" style="stroke:#2B6CB0;stroke-width:1;"/><polygon fill="#2B6CB0" points="367.49,717.08,359.4336,711.4148,362.5844,716.1129,357.8863,719.2638,367.49,717.08" style="stroke:#2B6CB0;stroke-width:1;"/><text fill="#000000" font-family="sans-serif" font-size="13" lengthAdjust="spacing" textLength="59.3569" x="269.06" y="662.6984">&#171;include&#187;</text></g><!--link UC9 to UC22--><g class="link" data-entity-1="ent0024" data-entity-2="ent0026" data-link-type="dependency" data-source-line="73" id="lnk58"><path d="M209.48,411.26 C220.24,416.04 230.84,422.76 238.06,432.13 C285.16,493.25 218.13,544.3 268.06,603.13 C292.92,632.42 328.4433,645.0117 362.4933,651.4117" fill="none" id="UC9-to-UC22" style="stroke:#2B6CB0;stroke-width:1;"/><polygon fill="#2B6CB0" points="368.39,652.52,360.2838,646.9263,363.476,651.5964,358.806,654.7886,368.39,652.52" style="stroke:#2B6CB0;stroke-width:1;"/><text fill="#000000" font-family="sans-serif" font-size="13" lengthAdjust="spacing" textLength="59.3569" x="269.06" y="599.6984">&#171;include&#187;</text></g><!--link UC9 to UC23--><g class="link" data-entity-1="ent0024" data-entity-2="ent0027" data-link-type="dependency" data-source-line="74" id="lnk59"><path d="M210.29,411.09 C220.93,415.85 231.27,422.61 238.06,432.13 C315.63,540.85 186.04,625.73 268.06,731.13 C291.93,761.8 327.9452,774.8615 362.4652,781.4115" fill="none" id="UC9-to-UC23" style="stroke:#2B6CB0;stroke-width:1;"/><polygon fill="#2B6CB0" points="368.36,782.53,360.2634,776.9223,363.4476,781.5979,358.7721,784.7821,368.36,782.53" style="stroke:#2B6CB0;stroke-width:1;"/><text fill="#000000" font-family="sans-serif" font-size="13" lengthAdjust="spacing" textLength="59.3569" x="269.06" y="727.6984">&#171;include&#187;</text></g><?plantuml-src TPJlJjfG6CQ_zofEt6SJAFyNGo8ct83k0Xeu0m9hJIdPbcq9QXGMjvHb82CQ0KNqWnISsvmmuyrmJjkxs2djKKuBNqZUv_cTvttxjeS2VAq0HG9oBfDLG3edmvIIaqIkcC-9su8il07RGYelPE2cyhu0WMKBOgO0vu1I4QQ48WGVE00I1Cx8KabCRqW5IGOlaj5a8fcq74bEGzbH-KHu8-4ZwheiIszPyHF72Ic526ZGr-jj81J1fb9AGr5nTDneeRzLIz-2GYeBPOvx6WiWzLpNccYawbU7QApgjnDzqfwDHiTSCNxraNfdQ3rZkBDYnRpQM2yfsNd4Rgst9kYXuI3-UTyUWV5vxtbyUuKElj3pJ02gtk6Z4TYIyb2a09E0snV6yCm6mFInYtU6b0kuEFtaqEmVcTtVkBzhN5OTZA7GlpAwF3IqWJxPS_pWl6_kVzKVDDj7wYvkZ6Wp1hEUgLgpCVFiXtwiKIp4O8CwSGsjYvj_A11cXbPhqt6FOBXBnmrv7mfLUrQJoNTyUa9Z8buCdrpZwow-gU3oX6BH1IkgjqWQWHqcp4vyR9O_smZDY34Bl6cG7Tg0CUpZlNtwsdrCgqx5q4OsXkv-ulez7fmxP8Hz_nsprMCQBfYPV4RJ-mxvWCak7IgsQ05bu_4RxtkEulqBgA6AcnTC5iylM1CP_9Ii_W2VrYZ6V4fckOmgO_Pgp2wjSqd1wcgStYXMyhjhZy2xXO1BSDT1LnrsrJ5te8_Zd3-D-JbPYNVLVeyGS0dkscf3VadryQa7oMLg8WGf7WGlmTfQJamLoB3n-BmLMcw5brhUGo5wAB8yBpgpu3i5YcdY42jChPZd5BLutr8hmkOz6zv6CPhczwGzMVnoA-2o_WC0?></g></svg>